<svg width="100%" viewBox="0 0 65 65" fill="none" xmlns="http://www.w3.org/2000/svg">
<circle cx="32.5" cy="32.5" r="32" stroke="white"/>
<path d="M26.872 40V31.312C26.872 30.752 26.856 30.192 26.824 29.632C26.808 29.056 26.76 28.488 26.68 27.928H28.528L28.744 30.424L28.504 30.616C28.84 29.64 29.4 28.904 30.184 28.408C30.968 27.896 31.872 27.64 32.896 27.64C35.792 27.64 37.24 29.232 37.24 32.416V40H35.296V32.512C35.296 31.392 35.072 30.576 34.624 30.064C34.176 29.536 33.472 29.272 32.512 29.272C31.392 29.272 30.496 29.616 29.824 30.304C29.152 30.992 28.816 31.92 28.816 33.088V40H26.872Z" fill="white"/>
<circle cx="42.5" cy="17.5" r="3.5" fill="white"/>
</svg>
